<svg width="21" height="22" viewBox="0 0 21 22" fill="none" xmlns="http://www.w3.org/2000/svg">
<rect y="0.5" width="21" height="21" rx="10.5" fill="#C30909"/>
<path d="M10.4998 9.81725L7.4258 6.35789L7.42578 6.35786C7.27613 6.18951 7.06776 6.08963 6.84473 6.08963C6.62171 6.08963 6.41334 6.18951 6.26369 6.35786C6.11472 6.52545 6.03441 6.74821 6.03441 6.97624C6.03441 7.20427 6.11471 7.42701 6.26367 7.5946C6.26368 7.59461 6.26368 7.59462 6.26369 7.59462L9.3691 11.0893L6.2627 14.5829L6.26268 14.5829C6.11371 14.7505 6.0334 14.9733 6.0334 15.2013C6.0334 15.4293 6.11371 15.6521 6.26268 15.8197C6.41233 15.988 6.6207 16.0879 6.84372 16.0879C7.06674 16.0879 7.27511 15.988 7.42476 15.8197L10.4998 12.3614L13.5738 15.8208L13.5738 15.8208C13.7235 15.9892 13.9319 16.0891 14.1549 16.0891C14.3779 16.0891 14.5863 15.9892 14.7359 15.8208C14.8849 15.6532 14.9652 15.4305 14.9652 15.2025C14.9652 14.9744 14.8849 14.7517 14.736 14.5841C14.7359 14.5841 14.7359 14.5841 14.7359 14.5841L11.6305 11.0894L14.7369 7.59405C14.7369 7.59405 14.737 7.59405 14.737 7.59404C14.8859 7.42645 14.9662 7.2037 14.9662 6.97567C14.9662 6.74764 14.8859 6.52488 14.7369 6.35729C14.5873 6.18894 14.3789 6.08906 14.1559 6.08906C13.9329 6.08906 13.7245 6.18894 13.5749 6.35729L13.5748 6.3573L10.4998 9.81725Z" fill="white" stroke="white" stroke-width="0.4"/>
</svg>
