<svg width="13" height="11" viewBox="0 0 13 11" fill="none" xmlns="http://www.w3.org/2000/svg">
<g filter="url(#filter0_d_381_5366)">
<path d="M11.4293 2.10356L4.53905 8.99383C4.47904 9.05405 4.40773 9.10183 4.32921 9.13443C4.25069 9.16704 4.16651 9.18382 4.0815 9.18382C3.99648 9.18382 3.9123 9.16704 3.83378 9.13443C3.75526 9.10183 3.68395 9.05405 3.62394 8.99383L0.609448 5.97934C0.549361 5.91925 0.501697 5.84792 0.469178 5.76941C0.436659 5.6909 0.419922 5.60676 0.419922 5.52178C0.419922 5.4368 0.436659 5.35266 0.469178 5.27415C0.501697 5.19565 0.549361 5.12431 0.609448 5.06422C0.669535 5.00414 0.740869 4.95647 0.819377 4.92395C0.897884 4.89144 0.982029 4.8747 1.067 4.8747C1.15198 4.8747 1.23612 4.89144 1.31463 4.92395C1.39314 4.95647 1.46447 5.00414 1.52456 5.06422L4.08203 7.6217L10.5153 1.18953C10.6366 1.06817 10.8012 1 10.9728 1C11.1445 1 11.309 1.06817 11.4304 1.18953C11.5517 1.31088 11.6199 1.47547 11.6199 1.64708C11.6199 1.8187 11.5517 1.98329 11.4304 2.10464L11.4293 2.10356Z" fill="white"/>
<path d="M11.4292 2.52791L4.75155 9.20559C4.75145 9.2057 4.75134 9.2058 4.75123 9.20591L4.75118 9.20596L11.4292 2.52791ZM11.4292 2.52791L11.4303 2.52898L11.6425 2.31677C11.8201 2.13916 11.9199 1.89827 11.9199 1.64708C11.9199 1.3959 11.8201 1.15501 11.6425 0.977394C11.4649 0.799781 11.224 0.7 10.9728 0.7C10.7217 0.7 10.4808 0.799781 10.3031 0.977394L4.08205 7.19745L1.73669 4.85209C1.64875 4.76415 1.54434 4.69439 1.42944 4.64679C1.31453 4.5992 1.19138 4.5747 1.067 4.5747C0.942631 4.5747 0.819476 4.5992 0.704572 4.64679C0.589666 4.69439 0.48526 4.76415 0.397316 4.85209C0.309372 4.94004 0.23961 5.04444 0.192014 5.15935C0.144419 5.27425 0.119922 5.39741 0.119922 5.52178C0.119922 5.64615 0.144419 5.76931 0.192014 5.88421C0.239609 5.99912 0.309371 6.10352 0.397316 6.19147L3.41144 9.20559L11.4292 2.52791Z" stroke="white" stroke-width="0.6"/>
</g>
<defs>
<filter id="filter0_d_381_5366" x="-4.18018" y="0.400391" width="20.3999" height="17.3828" filterUnits="userSpaceOnUse" color-interpolation-filters="sRGB">
<feFlood flood-opacity="0" result="BackgroundImageFix"/>
<feColorMatrix in="SourceAlpha" type="matrix" values="0 0 0 0 0 0 0 0 0 0 0 0 0 0 0 0 0 0 127 0" result="hardAlpha"/>
<feOffset dy="4"/>
<feGaussianBlur stdDeviation="2"/>
<feComposite in2="hardAlpha" operator="out"/>
<feColorMatrix type="matrix" values="0 0 0 0 0 0 0 0 0 0 0 0 0 0 0 0 0 0 0.25 0"/>
<feBlend mode="normal" in2="BackgroundImageFix" result="effect1_dropShadow_381_5366"/>
<feBlend mode="normal" in="SourceGraphic" in2="effect1_dropShadow_381_5366" result="shape"/>
</filter>
</defs>
</svg>
