<svg width="21" height="22" viewBox="0 0 21 22" fill="none" xmlns="http://www.w3.org/2000/svg">
<rect y="0.5" width="21" height="21" rx="10.5" fill="#0E8E0B"/>
<g clip-path="url(#clip0_399_4878)">
<path d="M9.36444 14.0563L14.4167 6.45197C14.4167 6.45196 14.4167 6.45195 14.4167 6.45195C14.5549 6.24388 14.7739 6.08281 15.0436 6.08281C15.3134 6.08281 15.5324 6.24389 15.6706 6.45197C15.8088 6.65996 15.877 6.9244 15.877 7.18566C15.877 7.44692 15.8088 7.71137 15.6706 7.91936L15.4207 8.29569L15.4198 8.29435L9.99124 16.4665C9.9912 16.4666 9.99117 16.4666 9.99114 16.4667C9.9221 16.5709 9.83398 16.663 9.72715 16.7298C9.61917 16.7973 9.49526 16.8367 9.36397 16.8367C9.23268 16.8367 9.10878 16.7973 9.00079 16.7298C8.89396 16.663 8.80585 16.5709 8.7368 16.4667L8.73697 16.4669L9.36444 14.0563ZM9.36444 14.0563L7.5065 11.2594C7.43735 11.1553 7.34917 11.0634 7.24233 10.9968C7.13439 10.9295 7.01061 10.8902 6.8795 10.8902C6.74839 10.8902 6.62461 10.9295 6.51668 10.9968C6.40983 11.0634 6.32166 11.1553 6.2525 11.2594C6.18325 11.3636 6.13171 11.482 6.09754 11.6063C6.0633 11.7307 6.04619 11.8619 6.04619 11.9931C6.04619 12.1242 6.0633 12.2555 6.09754 12.3799C6.13171 12.5041 6.18325 12.6225 6.2525 12.7268L8.73671 16.4665L9.36444 14.0563Z" fill="white" stroke="white" stroke-width="0.6"/>
</g>
<defs>
<clipPath id="clip0_399_4878">
<rect width="12" height="12" fill="white" transform="translate(4.5 5)"/>
</clipPath>
</defs>
</svg>
