<svg width="419" height="354" viewBox="0 0 419 354" fill="none" xmlns="http://www.w3.org/2000/svg">
<circle cx="6" cy="187" r="5" stroke="#E1E1E1" stroke-width="2"/>
<circle cx="53" cy="187" r="5" stroke="#E1E1E1" stroke-width="2"/>
<path d="M12 187.111H16.7324C17.1625 187.111 17.5444 186.836 17.6808 186.428L19.2981 181.592C19.6151 180.644 20.9728 180.696 21.2164 181.665L25.5802 199.033C25.8478 200.098 27.3876 200.016 27.5403 198.928L30.8788 175.149C31.0367 174.024 32.6498 173.991 32.853 175.109L36.513 195.236C36.691 196.215 38.0338 196.362 38.4189 195.444L41.6601 187.724C41.816 187.353 42.1794 187.111 42.5821 187.111H47" stroke="#E1E1E1" stroke-width="5"/>
<circle cx="125" cy="283" r="5" stroke="#E1E1E1" stroke-width="2"/>
<circle cx="172" cy="283" r="5" stroke="#E1E1E1" stroke-width="2"/>
<path d="M131 283.111H135.732C136.162 283.111 136.544 282.836 136.681 282.428L138.298 277.592C138.615 276.644 139.973 276.696 140.216 277.665L144.58 295.033C144.848 296.098 146.388 296.016 146.54 294.928L149.879 271.149C150.037 270.024 151.65 269.991 151.853 271.109L155.513 291.236C155.691 292.215 157.034 292.362 157.419 291.444L160.66 283.724C160.816 283.353 161.179 283.111 161.582 283.111H166" stroke="#E1E1E1" stroke-width="5"/>
<circle cx="140" cy="320" r="5" stroke="#E1E1E1" stroke-width="2"/>
<circle cx="187" cy="320" r="5" stroke="#E1E1E1" stroke-width="2"/>
<path d="M146 320.111H150.732C151.162 320.111 151.544 319.836 151.681 319.428L153.298 314.592C153.615 313.644 154.973 313.696 155.216 314.665L159.58 332.033C159.848 333.098 161.388 333.016 161.54 331.928L164.879 308.149C165.037 307.024 166.65 306.991 166.853 308.109L170.513 328.236C170.691 329.215 172.034 329.362 172.419 328.444L175.66 320.724C175.816 320.353 176.179 320.111 176.582 320.111H181" stroke="#E1E1E1" stroke-width="5"/>
<circle cx="60" cy="142" r="5" stroke="#E1E1E1" stroke-width="2"/>
<circle cx="107" cy="142" r="5" stroke="#E1E1E1" stroke-width="2"/>
<path d="M66 142.111H70.7324C71.1625 142.111 71.5444 141.836 71.6808 141.428L73.2981 136.592C73.6151 135.644 74.9728 135.696 75.2164 136.665L79.5802 154.033C79.8478 155.098 81.3876 155.016 81.5403 153.928L84.8788 130.149C85.0367 129.024 86.6498 128.991 86.853 130.109L90.513 150.236C90.691 151.215 92.0338 151.362 92.4189 150.444L95.6601 142.724C95.816 142.353 96.1794 142.111 96.5821 142.111H101" stroke="#E1E1E1" stroke-width="5"/>
<circle cx="152" cy="252" r="5" stroke="#E1E1E1" stroke-width="2"/>
<circle cx="199" cy="252" r="5" stroke="#E1E1E1" stroke-width="2"/>
<path d="M158 252.111H162.732C163.162 252.111 163.544 251.836 163.681 251.428L165.298 246.592C165.615 245.644 166.973 245.696 167.216 246.665L171.58 264.033C171.848 265.098 173.388 265.016 173.54 263.928L176.879 240.149C177.037 239.024 178.65 238.991 178.853 240.109L182.513 260.236C182.691 261.215 184.034 261.362 184.419 260.444L187.66 252.724C187.816 252.353 188.179 252.111 188.582 252.111H193" stroke="#E1E1E1" stroke-width="5"/>
<circle cx="149" cy="292" r="5" stroke="#E1E1E1" stroke-width="2"/>
<circle cx="196" cy="292" r="5" stroke="#E1E1E1" stroke-width="2"/>
<path d="M155 292.111H159.732C160.162 292.111 160.544 291.836 160.681 291.428L162.298 286.592C162.615 285.644 163.973 285.696 164.216 286.665L168.58 304.033C168.848 305.098 170.388 305.016 170.54 303.928L173.879 280.149C174.037 279.024 175.65 278.991 175.853 280.109L179.513 300.236C179.691 301.215 181.034 301.362 181.419 300.444L184.66 292.724C184.816 292.353 185.179 292.111 185.582 292.111H190" stroke="#E1E1E1" stroke-width="5"/>
<circle cx="157" cy="209" r="5" stroke="#E1E1E1" stroke-width="2"/>
<circle cx="204" cy="209" r="5" stroke="#E1E1E1" stroke-width="2"/>
<path d="M163 209.111H167.732C168.162 209.111 168.544 208.836 168.681 208.428L170.298 203.592C170.615 202.644 171.973 202.696 172.216 203.665L176.58 221.033C176.848 222.098 178.388 222.016 178.54 220.928L181.879 197.149C182.037 196.024 183.65 195.991 183.853 197.109L187.513 217.236C187.691 218.215 189.034 218.362 189.419 217.444L192.66 209.724C192.816 209.353 193.179 209.111 193.582 209.111H198" stroke="#E1E1E1" stroke-width="5"/>
<circle cx="107" cy="240" r="5" stroke="#E1E1E1" stroke-width="2"/>
<circle cx="154" cy="240" r="5" stroke="#E1E1E1" stroke-width="2"/>
<path d="M113 240.111H117.732C118.162 240.111 118.544 239.836 118.681 239.428L120.298 234.592C120.615 233.644 121.973 233.696 122.216 234.665L126.58 252.033C126.848 253.098 128.388 253.016 128.54 251.928L131.879 228.149C132.037 227.024 133.65 226.991 133.853 228.109L137.513 248.236C137.691 249.215 139.034 249.362 139.419 248.444L142.66 240.724C142.816 240.353 143.179 240.111 143.582 240.111H148" stroke="#E1E1E1" stroke-width="5"/>
<circle cx="169" cy="117" r="5" stroke="#E1E1E1" stroke-width="2"/>
<circle cx="216" cy="117" r="5" stroke="#E1E1E1" stroke-width="2"/>
<path d="M175 117.111H179.732C180.162 117.111 180.544 116.836 180.681 116.428L182.298 111.592C182.615 110.644 183.973 110.696 184.216 111.665L188.58 129.033C188.848 130.098 190.388 130.016 190.54 128.928L193.879 105.149C194.037 104.024 195.65 103.991 195.853 105.109L199.513 125.236C199.691 126.215 201.034 126.362 201.419 125.444L204.66 117.724C204.816 117.353 205.179 117.111 205.582 117.111H210" stroke="#E1E1E1" stroke-width="5"/>
<circle cx="81" cy="194" r="5" stroke="#E1E1E1" stroke-width="2"/>
<circle cx="128" cy="194" r="5" stroke="#E1E1E1" stroke-width="2"/>
<path d="M87 194.111H91.7324C92.1625 194.111 92.5444 193.836 92.6808 193.428L94.2981 188.592C94.6151 187.644 95.9728 187.696 96.2164 188.665L100.58 206.033C100.848 207.098 102.388 207.016 102.54 205.928L105.879 182.149C106.037 181.024 107.65 180.991 107.853 182.109L111.513 202.236C111.691 203.215 113.034 203.362 113.419 202.444L116.66 194.724C116.816 194.353 117.179 194.111 117.582 194.111H122" stroke="#E1E1E1" stroke-width="5"/>
<circle cx="163" cy="162" r="5" stroke="#E1E1E1" stroke-width="2"/>
<circle cx="210" cy="162" r="5" stroke="#E1E1E1" stroke-width="2"/>
<path d="M169 162.111H173.732C174.162 162.111 174.544 161.836 174.681 161.428L176.298 156.592C176.615 155.644 177.973 155.696 178.216 156.665L182.58 174.033C182.848 175.098 184.388 175.016 184.54 173.928L187.879 150.149C188.037 149.024 189.65 148.991 189.853 150.109L193.513 170.236C193.691 171.215 195.034 171.362 195.419 170.444L198.66 162.724C198.816 162.353 199.179 162.111 199.582 162.111H204" stroke="#E1E1E1" stroke-width="5"/>
<circle cx="179" cy="70" r="5" stroke="#E1E1E1" stroke-width="2"/>
<circle cx="226" cy="70" r="5" stroke="#E1E1E1" stroke-width="2"/>
<path d="M185 70.1112H189.732C190.162 70.1112 190.544 69.8362 190.681 69.4283L192.298 64.5919C192.615 63.6442 193.973 63.6962 194.216 64.6654L198.58 82.0328C198.848 83.0979 200.388 83.0157 200.54 81.9282L203.879 58.1488C204.037 57.0241 205.65 56.9915 205.853 58.1089L209.513 78.2361C209.691 79.2149 211.034 79.3616 211.419 78.4442L214.66 70.7241C214.816 70.3528 215.179 70.1112 215.582 70.1112H220" stroke="#E1E1E1" stroke-width="5"/>
<circle cx="179" cy="18" r="5" stroke="#E1E1E1" stroke-width="2"/>
<circle cx="226" cy="18" r="5" stroke="#E1E1E1" stroke-width="2"/>
<path d="M185 18.1112H189.732C190.162 18.1112 190.544 17.8362 190.681 17.4283L192.298 12.5919C192.615 11.6442 193.973 11.6962 194.216 12.6654L198.58 30.0328C198.848 31.0979 200.388 31.0157 200.54 29.9282L203.879 6.14882C204.037 5.02407 205.65 4.99149 205.853 6.10894L209.513 26.2361C209.691 27.2149 211.034 27.3616 211.419 26.4442L214.66 18.7241C214.816 18.3528 215.179 18.1112 215.582 18.1112H220" stroke="#E1E1E1" stroke-width="5"/>
<circle cx="195" cy="44" r="5" stroke="#E1E1E1" stroke-width="2"/>
<circle cx="242" cy="44" r="5" stroke="#E1E1E1" stroke-width="2"/>
<path d="M201 44.1112H205.732C206.162 44.1112 206.544 43.8362 206.681 43.4283L208.298 38.5919C208.615 37.6442 209.973 37.6962 210.216 38.6654L214.58 56.0328C214.848 57.0979 216.388 57.0157 216.54 55.9282L219.879 32.1488C220.037 31.0241 221.65 30.9915 221.853 32.1089L225.513 52.2361C225.691 53.2149 227.034 53.3616 227.419 52.4442L230.66 44.7241C230.816 44.3528 231.179 44.1112 231.582 44.1112H236" stroke="#E1E1E1" stroke-width="5"/>
<circle cx="206" cy="88" r="5" stroke="#E1E1E1" stroke-width="2"/>
<circle cx="253" cy="88" r="5" stroke="#E1E1E1" stroke-width="2"/>
<path d="M212 88.1112H216.732C217.162 88.1112 217.544 87.8362 217.681 87.4283L219.298 82.5919C219.615 81.6442 220.973 81.6962 221.216 82.6654L225.58 100.033C225.848 101.098 227.388 101.016 227.54 99.9282L230.879 76.1488C231.037 75.0241 232.65 74.9915 232.853 76.1089L236.513 96.2361C236.691 97.2149 238.034 97.3616 238.419 96.4442L241.66 88.7241C241.816 88.3528 242.179 88.1112 242.582 88.1112H247" stroke="#E1E1E1" stroke-width="5"/>
<circle cx="219" cy="124" r="5" stroke="#E1E1E1" stroke-width="2"/>
<circle cx="266" cy="124" r="5" stroke="#E1E1E1" stroke-width="2"/>
<path d="M225 124.111H229.732C230.162 124.111 230.544 123.836 230.681 123.428L232.298 118.592C232.615 117.644 233.973 117.696 234.216 118.665L238.58 136.033C238.848 137.098 240.388 137.016 240.54 135.928L243.879 112.149C244.037 111.024 245.65 110.991 245.853 112.109L249.513 132.236C249.691 133.215 251.034 133.362 251.419 132.444L254.66 124.724C254.816 124.353 255.179 124.111 255.582 124.111H260" stroke="#E1E1E1" stroke-width="5"/>
<circle cx="227" cy="158" r="5" stroke="#E1E1E1" stroke-width="2"/>
<circle cx="274" cy="158" r="5" stroke="#E1E1E1" stroke-width="2"/>
<path d="M233 158.111H237.732C238.162 158.111 238.544 157.836 238.681 157.428L240.298 152.592C240.615 151.644 241.973 151.696 242.216 152.665L246.58 170.033C246.848 171.098 248.388 171.016 248.54 169.928L251.879 146.149C252.037 145.024 253.65 144.991 253.853 146.109L257.513 166.236C257.691 167.215 259.034 167.362 259.419 166.444L262.66 158.724C262.816 158.353 263.179 158.111 263.582 158.111H268" stroke="#E1E1E1" stroke-width="5"/>
<circle cx="244" cy="193" r="5" stroke="#E1E1E1" stroke-width="2"/>
<circle cx="291" cy="193" r="5" stroke="#E1E1E1" stroke-width="2"/>
<path d="M250 193.111H254.732C255.162 193.111 255.544 192.836 255.681 192.428L257.298 187.592C257.615 186.644 258.973 186.696 259.216 187.665L263.58 205.033C263.848 206.098 265.388 206.016 265.54 204.928L268.879 181.149C269.037 180.024 270.65 179.991 270.853 181.109L274.513 201.236C274.691 202.215 276.034 202.362 276.419 201.444L279.66 193.724C279.816 193.353 280.179 193.111 280.582 193.111H285" stroke="#E1E1E1" stroke-width="5"/>
<circle cx="260" cy="228" r="5" stroke="#E1E1E1" stroke-width="2"/>
<circle cx="307" cy="228" r="5" stroke="#E1E1E1" stroke-width="2"/>
<path d="M266 228.111H270.732C271.162 228.111 271.544 227.836 271.681 227.428L273.298 222.592C273.615 221.644 274.973 221.696 275.216 222.665L279.58 240.033C279.848 241.098 281.388 241.016 281.54 239.928L284.879 216.149C285.037 215.024 286.65 214.991 286.853 216.109L290.513 236.236C290.691 237.215 292.034 237.362 292.419 236.444L295.66 228.724C295.816 228.353 296.179 228.111 296.582 228.111H301" stroke="#E1E1E1" stroke-width="5"/>
<circle cx="309" cy="184" r="5" stroke="#E1E1E1" stroke-width="2"/>
<circle cx="356" cy="184" r="5" stroke="#E1E1E1" stroke-width="2"/>
<path d="M315 184.111H319.732C320.162 184.111 320.544 183.836 320.681 183.428L322.298 178.592C322.615 177.644 323.973 177.696 324.216 178.665L328.58 196.033C328.848 197.098 330.388 197.016 330.54 195.928L333.879 172.149C334.037 171.024 335.65 170.991 335.853 172.109L339.513 192.236C339.691 193.215 341.034 193.362 341.419 192.444L344.66 184.724C344.816 184.353 345.179 184.111 345.582 184.111H350" stroke="#E1E1E1" stroke-width="5"/>
</svg>
