<svg width="456" height="365" viewBox="0 0 456 365" fill="none" xmlns="http://www.w3.org/2000/svg">
<g opacity="0.4">
<circle cx="38" cy="206" r="5" stroke="#D2D2D2" stroke-width="2"/>
<path d="M-3 206.111H1.73241C2.16249 206.111 2.5444 205.836 2.68079 205.428L4.29813 200.592C4.61506 199.644 5.97284 199.696 6.21636 200.665L10.5802 218.033C10.8478 219.098 12.3876 219.016 12.5403 217.928L15.8788 194.149C16.0367 193.024 17.6498 192.991 17.853 194.109L21.513 214.236C21.691 215.215 23.0338 215.362 23.4189 214.444L26.6601 206.724C26.816 206.353 27.1794 206.111 27.5821 206.111H32" stroke="#D2D2D2" stroke-width="5"/>
</g>
<g opacity="0.4">
<circle cx="100" cy="187" r="5" stroke="#D2D2D2" stroke-width="2"/>
<circle cx="147" cy="187" r="5" stroke="#D2D2D2" stroke-width="2"/>
<path d="M106 187.111H110.732C111.162 187.111 111.544 186.836 111.681 186.428L113.298 181.592C113.615 180.644 114.973 180.696 115.216 181.665L119.58 199.033C119.848 200.098 121.388 200.016 121.54 198.928L124.879 175.149C125.037 174.024 126.65 173.991 126.853 175.109L130.513 195.236C130.691 196.215 132.034 196.362 132.419 195.444L135.66 187.724C135.816 187.353 136.179 187.111 136.582 187.111H141" stroke="#D2D2D2" stroke-width="5"/>
</g>
<g opacity="0.4">
<circle cx="110" cy="302" r="5" stroke="#D2D2D2" stroke-width="2"/>
<circle cx="157" cy="302" r="5" stroke="#D2D2D2" stroke-width="2"/>
<path d="M116 302.111H120.732C121.162 302.111 121.544 301.836 121.681 301.428L123.298 296.592C123.615 295.644 124.973 295.696 125.216 296.665L129.58 314.033C129.848 315.098 131.388 315.016 131.54 313.928L134.879 290.149C135.037 289.024 136.65 288.991 136.853 290.109L140.513 310.236C140.691 311.215 142.034 311.362 142.419 310.444L145.66 302.724C145.816 302.353 146.179 302.111 146.582 302.111H151" stroke="#D2D2D2" stroke-width="5"/>
</g>
<g opacity="0.4">
<circle cx="219" cy="283" r="5" stroke="#D2D2D2" stroke-width="2"/>
<circle cx="266" cy="283" r="5" stroke="#D2D2D2" stroke-width="2"/>
<path d="M225 283.111H229.732C230.162 283.111 230.544 282.836 230.681 282.428L232.298 277.592C232.615 276.644 233.973 276.696 234.216 277.665L238.58 295.033C238.848 296.098 240.388 296.016 240.54 294.928L243.879 271.149C244.037 270.024 245.65 269.991 245.853 271.109L249.513 291.236C249.691 292.215 251.034 292.362 251.419 291.444L254.66 283.724C254.816 283.353 255.179 283.111 255.582 283.111H260" stroke="#D2D2D2" stroke-width="5"/>
</g>
<g opacity="0.4">
<circle cx="125" cy="339" r="5" stroke="#D2D2D2" stroke-width="2"/>
<circle cx="172" cy="339" r="5" stroke="#D2D2D2" stroke-width="2"/>
<path d="M131 339.111H135.732C136.162 339.111 136.544 338.836 136.681 338.428L138.298 333.592C138.615 332.644 139.973 332.696 140.216 333.665L144.58 351.033C144.848 352.098 146.388 352.016 146.54 350.928L149.879 327.149C150.037 326.024 151.65 325.991 151.853 327.109L155.513 347.236C155.691 348.215 157.034 348.362 157.419 347.444L160.66 339.724C160.816 339.353 161.179 339.111 161.582 339.111H166" stroke="#D2D2D2" stroke-width="5"/>
</g>
<g opacity="0.4">
<circle cx="234" cy="320" r="5" stroke="#D2D2D2" stroke-width="2"/>
<circle cx="281" cy="320" r="5" stroke="#D2D2D2" stroke-width="2"/>
<path d="M240 320.111H244.732C245.162 320.111 245.544 319.836 245.681 319.428L247.298 314.592C247.615 313.644 248.973 313.696 249.216 314.665L253.58 332.033C253.848 333.098 255.388 333.016 255.54 331.928L258.879 308.149C259.037 307.024 260.65 306.991 260.853 308.109L264.513 328.236C264.691 329.215 266.034 329.362 266.419 328.444L269.66 320.724C269.816 320.353 270.179 320.111 270.582 320.111H275" stroke="#D2D2D2" stroke-width="5"/>
</g>
<g opacity="0.4">
<circle cx="45" cy="161" r="5" stroke="#D2D2D2" stroke-width="2"/>
<circle cx="92" cy="161" r="5" stroke="#D2D2D2" stroke-width="2"/>
<path d="M51 161.111H55.7324C56.1625 161.111 56.5444 160.836 56.6808 160.428L58.2981 155.592C58.6151 154.644 59.9728 154.696 60.2164 155.665L64.5802 173.033C64.8478 174.098 66.3876 174.016 66.5403 172.928L69.8788 149.149C70.0367 148.024 71.6498 147.991 71.853 149.109L75.513 169.236C75.691 170.215 77.0338 170.362 77.4189 169.444L80.6601 161.724C80.816 161.353 81.1794 161.111 81.5821 161.111H86" stroke="#D2D2D2" stroke-width="5"/>
</g>
<g opacity="0.4">
<circle cx="154" cy="142" r="5" stroke="#D2D2D2" stroke-width="2"/>
<circle cx="201" cy="142" r="5" stroke="#D2D2D2" stroke-width="2"/>
<path d="M160 142.111H164.732C165.162 142.111 165.544 141.836 165.681 141.428L167.298 136.592C167.615 135.644 168.973 135.696 169.216 136.665L173.58 154.033C173.848 155.098 175.388 155.016 175.54 153.928L178.879 130.149C179.037 129.024 180.65 128.991 180.853 130.109L184.513 150.236C184.691 151.215 186.034 151.362 186.419 150.444L189.66 142.724C189.816 142.353 190.179 142.111 190.582 142.111H195" stroke="#D2D2D2" stroke-width="5"/>
</g>
<g opacity="0.4">
<circle cx="137" cy="271" r="5" stroke="#D2D2D2" stroke-width="2"/>
<circle cx="184" cy="271" r="5" stroke="#D2D2D2" stroke-width="2"/>
<path d="M143 271.111H147.732C148.162 271.111 148.544 270.836 148.681 270.428L150.298 265.592C150.615 264.644 151.973 264.696 152.216 265.665L156.58 283.033C156.848 284.098 158.388 284.016 158.54 282.928L161.879 259.149C162.037 258.024 163.65 257.991 163.853 259.109L167.513 279.236C167.691 280.215 169.034 280.362 169.419 279.444L172.66 271.724C172.816 271.353 173.179 271.111 173.582 271.111H178" stroke="#D2D2D2" stroke-width="5"/>
</g>
<g opacity="0.4">
<circle cx="246" cy="252" r="5" stroke="#D2D2D2" stroke-width="2"/>
<circle cx="293" cy="252" r="5" stroke="#D2D2D2" stroke-width="2"/>
<path d="M252 252.111H256.732C257.162 252.111 257.544 251.836 257.681 251.428L259.298 246.592C259.615 245.644 260.973 245.696 261.216 246.665L265.58 264.033C265.848 265.098 267.388 265.016 267.54 263.928L270.879 240.149C271.037 239.024 272.65 238.991 272.853 240.109L276.513 260.236C276.691 261.215 278.034 261.362 278.419 260.444L281.66 252.724C281.816 252.353 282.179 252.111 282.582 252.111H287" stroke="#D2D2D2" stroke-width="5"/>
</g>
<g opacity="0.4">
<circle cx="134" cy="311" r="5" stroke="#D2D2D2" stroke-width="2"/>
<circle cx="181" cy="311" r="5" stroke="#D2D2D2" stroke-width="2"/>
<path d="M140 311.111H144.732C145.162 311.111 145.544 310.836 145.681 310.428L147.298 305.592C147.615 304.644 148.973 304.696 149.216 305.665L153.58 323.033C153.848 324.098 155.388 324.016 155.54 322.928L158.879 299.149C159.037 298.024 160.65 297.991 160.853 299.109L164.513 319.236C164.691 320.215 166.034 320.362 166.419 319.444L169.66 311.724C169.816 311.353 170.179 311.111 170.582 311.111H175" stroke="#D2D2D2" stroke-width="5"/>
</g>
<g opacity="0.4">
<circle cx="243" cy="292" r="5" stroke="#D2D2D2" stroke-width="2"/>
<circle cx="290" cy="292" r="5" stroke="#D2D2D2" stroke-width="2"/>
<path d="M249 292.111H253.732C254.162 292.111 254.544 291.836 254.681 291.428L256.298 286.592C256.615 285.644 257.973 285.696 258.216 286.665L262.58 304.033C262.848 305.098 264.388 305.016 264.54 303.928L267.879 280.149C268.037 279.024 269.65 278.991 269.853 280.109L273.513 300.236C273.691 301.215 275.034 301.362 275.419 300.444L278.66 292.724C278.816 292.353 279.179 292.111 279.582 292.111H284" stroke="#D2D2D2" stroke-width="5"/>
</g>
<g opacity="0.4">
<circle cx="142" cy="228" r="5" stroke="#D2D2D2" stroke-width="2"/>
<circle cx="189" cy="228" r="5" stroke="#D2D2D2" stroke-width="2"/>
<path d="M148 228.111H152.732C153.162 228.111 153.544 227.836 153.681 227.428L155.298 222.592C155.615 221.644 156.973 221.696 157.216 222.665L161.58 240.033C161.848 241.098 163.388 241.016 163.54 239.928L166.879 216.149C167.037 215.024 168.65 214.991 168.853 216.109L172.513 236.236C172.691 237.215 174.034 237.362 174.419 236.444L177.66 228.724C177.816 228.353 178.179 228.111 178.582 228.111H183" stroke="#D2D2D2" stroke-width="5"/>
</g>
<g opacity="0.4">
<circle cx="251" cy="209" r="5" stroke="#D2D2D2" stroke-width="2"/>
<circle cx="298" cy="209" r="5" stroke="#D2D2D2" stroke-width="2"/>
<path d="M257 209.111H261.732C262.162 209.111 262.544 208.836 262.681 208.428L264.298 203.592C264.615 202.644 265.973 202.696 266.216 203.665L270.58 221.033C270.848 222.098 272.388 222.016 272.54 220.928L275.879 197.149C276.037 196.024 277.65 195.991 277.853 197.109L281.513 217.236C281.691 218.215 283.034 218.362 283.419 217.444L286.66 209.724C286.816 209.353 287.179 209.111 287.582 209.111H292" stroke="#D2D2D2" stroke-width="5"/>
</g>
<g opacity="0.4">
<circle cx="92" cy="259" r="5" stroke="#D2D2D2" stroke-width="2"/>
<circle cx="139" cy="259" r="5" stroke="#D2D2D2" stroke-width="2"/>
<path d="M98 259.111H102.732C103.162 259.111 103.544 258.836 103.681 258.428L105.298 253.592C105.615 252.644 106.973 252.696 107.216 253.665L111.58 271.033C111.848 272.098 113.388 272.016 113.54 270.928L116.879 247.149C117.037 246.024 118.65 245.991 118.853 247.109L122.513 267.236C122.691 268.215 124.034 268.362 124.419 267.444L127.66 259.724C127.816 259.353 128.179 259.111 128.582 259.111H133" stroke="#D2D2D2" stroke-width="5"/>
</g>
<g opacity="0.4">
<circle cx="201" cy="240" r="5" stroke="#D2D2D2" stroke-width="2"/>
<circle cx="248" cy="240" r="5" stroke="#D2D2D2" stroke-width="2"/>
<path d="M207 240.111H211.732C212.162 240.111 212.544 239.836 212.681 239.428L214.298 234.592C214.615 233.644 215.973 233.696 216.216 234.665L220.58 252.033C220.848 253.098 222.388 253.016 222.54 251.928L225.879 228.149C226.037 227.024 227.65 226.991 227.853 228.109L231.513 248.236C231.691 249.215 233.034 249.362 233.419 248.444L236.66 240.724C236.816 240.353 237.179 240.111 237.582 240.111H242" stroke="#D2D2D2" stroke-width="5"/>
</g>
<g opacity="0.4">
<circle cx="154" cy="136" r="5" stroke="#D2D2D2" stroke-width="2"/>
<circle cx="201" cy="136" r="5" stroke="#D2D2D2" stroke-width="2"/>
<path d="M160 136.111H164.732C165.162 136.111 165.544 135.836 165.681 135.428L167.298 130.592C167.615 129.644 168.973 129.696 169.216 130.665L173.58 148.033C173.848 149.098 175.388 149.016 175.54 147.928L178.879 124.149C179.037 123.024 180.65 122.991 180.853 124.109L184.513 144.236C184.691 145.215 186.034 145.362 186.419 144.444L189.66 136.724C189.816 136.353 190.179 136.111 190.582 136.111H195" stroke="#D2D2D2" stroke-width="5"/>
</g>
<g opacity="0.4">
<circle cx="263" cy="117" r="5" stroke="#D2D2D2" stroke-width="2"/>
<circle cx="310" cy="117" r="5" stroke="#D2D2D2" stroke-width="2"/>
<path d="M269 117.111H273.732C274.162 117.111 274.544 116.836 274.681 116.428L276.298 111.592C276.615 110.644 277.973 110.696 278.216 111.665L282.58 129.033C282.848 130.098 284.388 130.016 284.54 128.928L287.879 105.149C288.037 104.024 289.65 103.991 289.853 105.109L293.513 125.236C293.691 126.215 295.034 126.362 295.419 125.444L298.66 117.724C298.816 117.353 299.179 117.111 299.582 117.111H304" stroke="#D2D2D2" stroke-width="5"/>
</g>
<g opacity="0.4">
<circle cx="66" cy="213" r="5" stroke="#D2D2D2" stroke-width="2"/>
<circle cx="113" cy="213" r="5" stroke="#D2D2D2" stroke-width="2"/>
<path d="M72 213.111H76.7324C77.1625 213.111 77.5444 212.836 77.6808 212.428L79.2981 207.592C79.6151 206.644 80.9728 206.696 81.2164 207.665L85.5802 225.033C85.8478 226.098 87.3876 226.016 87.5403 224.928L90.8788 201.149C91.0367 200.024 92.6498 199.991 92.853 201.109L96.513 221.236C96.691 222.215 98.0338 222.362 98.4189 221.444L101.66 213.724C101.816 213.353 102.179 213.111 102.582 213.111H107" stroke="#D2D2D2" stroke-width="5"/>
</g>
<g opacity="0.4">
<circle cx="175" cy="194" r="5" stroke="#D2D2D2" stroke-width="2"/>
<circle cx="222" cy="194" r="5" stroke="#D2D2D2" stroke-width="2"/>
<path d="M181 194.111H185.732C186.162 194.111 186.544 193.836 186.681 193.428L188.298 188.592C188.615 187.644 189.973 187.696 190.216 188.665L194.58 206.033C194.848 207.098 196.388 207.016 196.54 205.928L199.879 182.149C200.037 181.024 201.65 180.991 201.853 182.109L205.513 202.236C205.691 203.215 207.034 203.362 207.419 202.444L210.66 194.724C210.816 194.353 211.179 194.111 211.582 194.111H216" stroke="#D2D2D2" stroke-width="5"/>
</g>
<g opacity="0.4">
<circle cx="148" cy="181" r="5" stroke="#D2D2D2" stroke-width="2"/>
<circle cx="195" cy="181" r="5" stroke="#D2D2D2" stroke-width="2"/>
<path d="M154 181.111H158.732C159.162 181.111 159.544 180.836 159.681 180.428L161.298 175.592C161.615 174.644 162.973 174.696 163.216 175.665L167.58 193.033C167.848 194.098 169.388 194.016 169.54 192.928L172.879 169.149C173.037 168.024 174.65 167.991 174.853 169.109L178.513 189.236C178.691 190.215 180.034 190.362 180.419 189.444L183.66 181.724C183.816 181.353 184.179 181.111 184.582 181.111H189" stroke="#D2D2D2" stroke-width="5"/>
</g>
<g opacity="0.4">
<circle cx="257" cy="162" r="5" stroke="#D2D2D2" stroke-width="2"/>
<circle cx="304" cy="162" r="5" stroke="#D2D2D2" stroke-width="2"/>
<path d="M263 162.111H267.732C268.162 162.111 268.544 161.836 268.681 161.428L270.298 156.592C270.615 155.644 271.973 155.696 272.216 156.665L276.58 174.033C276.848 175.098 278.388 175.016 278.54 173.928L281.879 150.149C282.037 149.024 283.65 148.991 283.853 150.109L287.513 170.236C287.691 171.215 289.034 171.362 289.419 170.444L292.66 162.724C292.816 162.353 293.179 162.111 293.582 162.111H298" stroke="#D2D2D2" stroke-width="5"/>
</g>
<g opacity="0.4">
<circle cx="164" cy="89" r="5" stroke="#D2D2D2" stroke-width="2"/>
<circle cx="211" cy="89" r="5" stroke="#D2D2D2" stroke-width="2"/>
<path d="M170 89.1112H174.732C175.162 89.1112 175.544 88.8362 175.681 88.4283L177.298 83.5919C177.615 82.6442 178.973 82.6962 179.216 83.6654L183.58 101.033C183.848 102.098 185.388 102.016 185.54 100.928L188.879 77.1488C189.037 76.0241 190.65 75.9915 190.853 77.1089L194.513 97.2361C194.691 98.2149 196.034 98.3616 196.419 97.4442L199.66 89.7241C199.816 89.3528 200.179 89.1112 200.582 89.1112H205" stroke="#D2D2D2" stroke-width="5"/>
</g>
<g opacity="0.4">
<circle cx="273" cy="70" r="5" stroke="#D2D2D2" stroke-width="2"/>
<circle cx="320" cy="70" r="5" stroke="#D2D2D2" stroke-width="2"/>
<path d="M279 70.1112H283.732C284.162 70.1112 284.544 69.8362 284.681 69.4283L286.298 64.5919C286.615 63.6442 287.973 63.6962 288.216 64.6654L292.58 82.0328C292.848 83.0979 294.388 83.0157 294.54 81.9282L297.879 58.1488C298.037 57.0241 299.65 56.9915 299.853 58.1089L303.513 78.2361C303.691 79.2149 305.034 79.3616 305.419 78.4442L308.66 70.7241C308.816 70.3528 309.179 70.1112 309.582 70.1112H314" stroke="#D2D2D2" stroke-width="5"/>
</g>
<g opacity="0.4">
<circle cx="164" cy="37" r="5" stroke="#D2D2D2" stroke-width="2"/>
<circle cx="211" cy="37" r="5" stroke="#D2D2D2" stroke-width="2"/>
<path d="M170 37.1112H174.732C175.162 37.1112 175.544 36.8362 175.681 36.4283L177.298 31.5919C177.615 30.6442 178.973 30.6962 179.216 31.6654L183.58 49.0328C183.848 50.0979 185.388 50.0157 185.54 48.9282L188.879 25.1488C189.037 24.0241 190.65 23.9915 190.853 25.1089L194.513 45.2361C194.691 46.2149 196.034 46.3616 196.419 45.4442L199.66 37.7241C199.816 37.3528 200.179 37.1112 200.582 37.1112H205" stroke="#D2D2D2" stroke-width="5"/>
</g>
<g opacity="0.4">
<circle cx="273" cy="18" r="5" stroke="#D2D2D2" stroke-width="2"/>
<circle cx="320" cy="18" r="5" stroke="#D2D2D2" stroke-width="2"/>
<path d="M279 18.1112H283.732C284.162 18.1112 284.544 17.8362 284.681 17.4283L286.298 12.5919C286.615 11.6442 287.973 11.6962 288.216 12.6654L292.58 30.0328C292.848 31.0979 294.388 31.0157 294.54 29.9282L297.879 6.14882C298.037 5.02407 299.65 4.99149 299.853 6.10894L303.513 26.2361C303.691 27.2149 305.034 27.3616 305.419 26.4442L308.66 18.7241C308.816 18.3528 309.179 18.1112 309.582 18.1112H314" stroke="#D2D2D2" stroke-width="5"/>
</g>
<g opacity="0.4">
<circle cx="180" cy="63" r="5" stroke="#D2D2D2" stroke-width="2"/>
<circle cx="227" cy="63" r="5" stroke="#D2D2D2" stroke-width="2"/>
<path d="M186 63.1112H190.732C191.162 63.1112 191.544 62.8362 191.681 62.4283L193.298 57.5919C193.615 56.6442 194.973 56.6962 195.216 57.6654L199.58 75.0328C199.848 76.0979 201.388 76.0157 201.54 74.9282L204.879 51.1488C205.037 50.0241 206.65 49.9915 206.853 51.1089L210.513 71.2361C210.691 72.2149 212.034 72.3616 212.419 71.4442L215.66 63.7241C215.816 63.3528 216.179 63.1112 216.582 63.1112H221" stroke="#D2D2D2" stroke-width="5"/>
</g>
<g opacity="0.4">
<circle cx="289" cy="44" r="5" stroke="#D2D2D2" stroke-width="2"/>
<circle cx="336" cy="44" r="5" stroke="#D2D2D2" stroke-width="2"/>
<path d="M295 44.1112H299.732C300.162 44.1112 300.544 43.8362 300.681 43.4283L302.298 38.5919C302.615 37.6442 303.973 37.6962 304.216 38.6654L308.58 56.0328C308.848 57.0979 310.388 57.0157 310.54 55.9282L313.879 32.1488C314.037 31.0241 315.65 30.9915 315.853 32.1089L319.513 52.2361C319.691 53.2149 321.034 53.3616 321.419 52.4442L324.66 44.7241C324.816 44.3528 325.179 44.1112 325.582 44.1112H330" stroke="#D2D2D2" stroke-width="5"/>
</g>
<g opacity="0.4">
<circle cx="191" cy="107" r="5" stroke="#D2D2D2" stroke-width="2"/>
<circle cx="238" cy="107" r="5" stroke="#D2D2D2" stroke-width="2"/>
<path d="M197 107.111H201.732C202.162 107.111 202.544 106.836 202.681 106.428L204.298 101.592C204.615 100.644 205.973 100.696 206.216 101.665L210.58 119.033C210.848 120.098 212.388 120.016 212.54 118.928L215.879 95.1488C216.037 94.0241 217.65 93.9915 217.853 95.1089L221.513 115.236C221.691 116.215 223.034 116.362 223.419 115.444L226.66 107.724C226.816 107.353 227.179 107.111 227.582 107.111H232" stroke="#D2D2D2" stroke-width="5"/>
</g>
<g opacity="0.4">
<circle cx="300" cy="88" r="5" stroke="#D2D2D2" stroke-width="2"/>
<circle cx="347" cy="88" r="5" stroke="#D2D2D2" stroke-width="2"/>
<path d="M306 88.1112H310.732C311.162 88.1112 311.544 87.8362 311.681 87.4283L313.298 82.5919C313.615 81.6442 314.973 81.6962 315.216 82.6654L319.58 100.033C319.848 101.098 321.388 101.016 321.54 99.9282L324.879 76.1488C325.037 75.0241 326.65 74.9915 326.853 76.1089L330.513 96.2361C330.691 97.2149 332.034 97.3616 332.419 96.4442L335.66 88.7241C335.816 88.3528 336.179 88.1112 336.582 88.1112H341" stroke="#D2D2D2" stroke-width="5"/>
</g>
<g opacity="0.4">
<circle cx="204" cy="143" r="5" stroke="#D2D2D2" stroke-width="2"/>
<circle cx="251" cy="143" r="5" stroke="#D2D2D2" stroke-width="2"/>
<path d="M210 143.111H214.732C215.162 143.111 215.544 142.836 215.681 142.428L217.298 137.592C217.615 136.644 218.973 136.696 219.216 137.665L223.58 155.033C223.848 156.098 225.388 156.016 225.54 154.928L228.879 131.149C229.037 130.024 230.65 129.991 230.853 131.109L234.513 151.236C234.691 152.215 236.034 152.362 236.419 151.444L239.66 143.724C239.816 143.353 240.179 143.111 240.582 143.111H245" stroke="#D2D2D2" stroke-width="5"/>
</g>
<g opacity="0.4">
<circle cx="313" cy="124" r="5" stroke="#D2D2D2" stroke-width="2"/>
<circle cx="360" cy="124" r="5" stroke="#D2D2D2" stroke-width="2"/>
<path d="M319 124.111H323.732C324.162 124.111 324.544 123.836 324.681 123.428L326.298 118.592C326.615 117.644 327.973 117.696 328.216 118.665L332.58 136.033C332.848 137.098 334.388 137.016 334.54 135.928L337.879 112.149C338.037 111.024 339.65 110.991 339.853 112.109L343.513 132.236C343.691 133.215 345.034 133.362 345.419 132.444L348.66 124.724C348.816 124.353 349.179 124.111 349.582 124.111H354" stroke="#D2D2D2" stroke-width="5"/>
</g>
<g opacity="0.4">
<circle cx="212" cy="177" r="5" stroke="#D2D2D2" stroke-width="2"/>
<circle cx="259" cy="177" r="5" stroke="#D2D2D2" stroke-width="2"/>
<path d="M218 177.111H222.732C223.162 177.111 223.544 176.836 223.681 176.428L225.298 171.592C225.615 170.644 226.973 170.696 227.216 171.665L231.58 189.033C231.848 190.098 233.388 190.016 233.54 188.928L236.879 165.149C237.037 164.024 238.65 163.991 238.853 165.109L242.513 185.236C242.691 186.215 244.034 186.362 244.419 185.444L247.66 177.724C247.816 177.353 248.179 177.111 248.582 177.111H253" stroke="#D2D2D2" stroke-width="5"/>
</g>
<g opacity="0.4">
<circle cx="321" cy="158" r="5" stroke="#D2D2D2" stroke-width="2"/>
<circle cx="368" cy="158" r="5" stroke="#D2D2D2" stroke-width="2"/>
<path d="M327 158.111H331.732C332.162 158.111 332.544 157.836 332.681 157.428L334.298 152.592C334.615 151.644 335.973 151.696 336.216 152.665L340.58 170.033C340.848 171.098 342.388 171.016 342.54 169.928L345.879 146.149C346.037 145.024 347.65 144.991 347.853 146.109L351.513 166.236C351.691 167.215 353.034 167.362 353.419 166.444L356.66 158.724C356.816 158.353 357.179 158.111 357.582 158.111H362" stroke="#D2D2D2" stroke-width="5"/>
</g>
<g opacity="0.4">
<circle cx="229" cy="212" r="5" stroke="#D2D2D2" stroke-width="2"/>
<circle cx="276" cy="212" r="5" stroke="#D2D2D2" stroke-width="2"/>
<path d="M235 212.111H239.732C240.162 212.111 240.544 211.836 240.681 211.428L242.298 206.592C242.615 205.644 243.973 205.696 244.216 206.665L248.58 224.033C248.848 225.098 250.388 225.016 250.54 223.928L253.879 200.149C254.037 199.024 255.65 198.991 255.853 200.109L259.513 220.236C259.691 221.215 261.034 221.362 261.419 220.444L264.66 212.724C264.816 212.353 265.179 212.111 265.582 212.111H270" stroke="#D2D2D2" stroke-width="5"/>
</g>
<g opacity="0.4">
<circle cx="338" cy="193" r="5" stroke="#D2D2D2" stroke-width="2"/>
<circle cx="385" cy="193" r="5" stroke="#D2D2D2" stroke-width="2"/>
<path d="M344 193.111H348.732C349.162 193.111 349.544 192.836 349.681 192.428L351.298 187.592C351.615 186.644 352.973 186.696 353.216 187.665L357.58 205.033C357.848 206.098 359.388 206.016 359.54 204.928L362.879 181.149C363.037 180.024 364.65 179.991 364.853 181.109L368.513 201.236C368.691 202.215 370.034 202.362 370.419 201.444L373.66 193.724C373.816 193.353 374.179 193.111 374.582 193.111H379" stroke="#D2D2D2" stroke-width="5"/>
</g>
<g opacity="0.4">
<circle cx="245" cy="247" r="5" stroke="#D2D2D2" stroke-width="2"/>
<circle cx="292" cy="247" r="5" stroke="#D2D2D2" stroke-width="2"/>
<path d="M251 247.111H255.732C256.162 247.111 256.544 246.836 256.681 246.428L258.298 241.592C258.615 240.644 259.973 240.696 260.216 241.665L264.58 259.033C264.848 260.098 266.388 260.016 266.54 258.928L269.879 235.149C270.037 234.024 271.65 233.991 271.853 235.109L275.513 255.236C275.691 256.215 277.034 256.362 277.419 255.444L280.66 247.724C280.816 247.353 281.179 247.111 281.582 247.111H286" stroke="#D2D2D2" stroke-width="5"/>
</g>
<g opacity="0.4">
<circle cx="354" cy="228" r="5" stroke="#D2D2D2" stroke-width="2"/>
<circle cx="401" cy="228" r="5" stroke="#D2D2D2" stroke-width="2"/>
<path d="M360 228.111H364.732C365.162 228.111 365.544 227.836 365.681 227.428L367.298 222.592C367.615 221.644 368.973 221.696 369.216 222.665L373.58 240.033C373.848 241.098 375.388 241.016 375.54 239.928L378.879 216.149C379.037 215.024 380.65 214.991 380.853 216.109L384.513 236.236C384.691 237.215 386.034 237.362 386.419 236.444L389.66 228.724C389.816 228.353 390.179 228.111 390.582 228.111H395" stroke="#D2D2D2" stroke-width="5"/>
</g>
<g opacity="0.4">
<circle cx="294" cy="203" r="5" stroke="#D2D2D2" stroke-width="2"/>
<circle cx="341" cy="203" r="5" stroke="#D2D2D2" stroke-width="2"/>
<path d="M300 203.111H304.732C305.162 203.111 305.544 202.836 305.681 202.428L307.298 197.592C307.615 196.644 308.973 196.696 309.216 197.665L313.58 215.033C313.848 216.098 315.388 216.016 315.54 214.928L318.879 191.149C319.037 190.024 320.65 189.991 320.853 191.109L324.513 211.236C324.691 212.215 326.034 212.362 326.419 211.444L329.66 203.724C329.816 203.353 330.179 203.111 330.582 203.111H335" stroke="#D2D2D2" stroke-width="5"/>
</g>
<g opacity="0.4">
<circle cx="403" cy="184" r="5" stroke="#D2D2D2" stroke-width="2"/>
<circle cx="450" cy="184" r="5" stroke="#D2D2D2" stroke-width="2"/>
<path d="M409 184.111H413.732C414.162 184.111 414.544 183.836 414.681 183.428L416.298 178.592C416.615 177.644 417.973 177.696 418.216 178.665L422.58 196.033C422.848 197.098 424.388 197.016 424.54 195.928L427.879 172.149C428.037 171.024 429.65 170.991 429.853 172.109L433.513 192.236C433.691 193.215 435.034 193.362 435.419 192.444L438.66 184.724C438.816 184.353 439.179 184.111 439.582 184.111H444" stroke="#D2D2D2" stroke-width="5"/>
</g>
</svg>
