<svg width="21" height="22" viewBox="0 0 21 22" fill="none" xmlns="http://www.w3.org/2000/svg">
<rect y="0.5" width="21" height="21" rx="10.5" fill="#FE8903"/>
<path d="M8.1665 8.45C6.74443 8.45 5.83835 9.14082 5.27908 9.99557C4.7298 10.835 4.51359 11.8305 4.42676 12.4848C4.347 13.0859 4.83455 13.55 5.39567 13.55C5.97075 13.55 6.39738 13.0896 6.5127 12.5969C6.59751 12.2345 6.75832 11.8138 7.056 11.4876C7.34461 11.1713 7.77803 10.925 8.45817 10.925C8.63591 10.925 8.83818 11.0257 9.10879 11.2614C9.28496 11.4148 9.45848 11.5953 9.65266 11.7974C9.75956 11.9086 9.87273 12.0263 9.99604 12.1496C10.6631 12.8167 11.54 13.55 12.8332 13.55C14.2552 13.55 15.1613 12.8592 15.7206 12.0044C16.2699 11.165 16.4861 10.1695 16.5729 9.51516C16.6527 8.91415 16.1651 8.45 15.604 8.45C15.0289 8.45 14.6023 8.91036 14.487 9.40314C14.4022 9.7655 14.2414 10.1862 13.9437 10.5124C13.6551 10.8287 13.2216 11.075 12.5415 11.075C12.1892 11.075 11.9066 10.9461 11.6343 10.7299C11.3916 10.5372 11.173 10.2892 10.9254 10.0084C10.8835 9.96092 10.8408 9.91247 10.797 9.86319C10.2072 9.19974 9.47321 8.45 8.1665 8.45Z" fill="white" stroke="white" stroke-width="0.6"/>
</svg>
